<svg xmlns="http://www.w3.org/2000/svg" viewBox="0 0 86.86 58.7">
    <defs>
        <style>
            .cls-1 {
                fill: none;
                stroke: #333;
                stroke-linecap: round;
                stroke-miterlimit: 10;
                stroke-dasharray: 20,462;
                stroke-width: 0.5;
                /* stroke-dashoffset: 482; */
                animation: dash 8s linear infinite;
            }

            @keyframes dash {
                from {
                    stroke-dashoffset: -482;
                }
                to {
                    stroke-dashoffset: 482;
                }
            }

        </style>
    </defs>
    <title>Spiral_1</title>
    <path
        class="cls-1"
        d="M.5,27.63c.3-4.43,3.21-8.2,6-11.66L15.23,5.14A14.14,14.14,0,0,1,19,1.54,9.75,9.75,0,0,1,26.58,1,15.27,15.27,0,0,1,34.85,7.2a23.72,23.72,0,0,1,3.22,9.1A57.18,57.18,0,0,1,32.76,52c-1.5,3-3.81,6.11-7.12,6.21a6.6,6.6,0,0,1-5.42-3.07A14.63,14.63,0,0,1,18.14,49C16,35,21.82,20.71,30.92,9.86c2.12-2.51,4.73-5,8-5.25s6.21,2,8.18,4.59c3.7,4.91,4.84,11.27,5.32,17.39.67,8.4.21,17.23-3.9,24.58-1.19,2.12-3.36,4.33-5.67,3.58-1.51-.49-2.36-2.07-2.91-3.56A29.63,29.63,0,0,1,40.66,30,42.1,42.1,0,0,1,53.84,13.07c1.78-1.4,3.91-2.76,6.15-2.41,3.14.48,4.79,3.94,5.6,7a49.06,49.06,0,0,1-.81,27.69c-.57,1.76-1.38,3.64-3,4.49C59,51.29,55.67,49,54.19,46.27c-2.5-4.61-2-10.38.14-15.18s5.61-8.82,9.09-12.74c2-2.21,4.32-4.6,7.27-4.55,3.21.06,5.63,3,6.75,6.05a23,23,0,0,1,.29,13.89,45.46,45.46,0,0,1-6,12.7,2.82,2.82,0,0,1-1.4,1.33c-1.05.3-2-.65-2.62-1.57a18.09,18.09,0,0,1-2-13.78,33.26,33.26,0,0,1,6.46-12.64c3.45-4.44,8.94-6.4,12.44-1a12.57,12.57,0,0,1,1.76,7.36,31.39,31.39,0,0,1-1.48,7.53"/>
</svg>
